<mxfile host="drawio-plugin" modified="2022-11-15T06:53:02.018Z" agent="5.0 (Windows NT 6.2; Win64; x64) AppleWebKit/537.36 (KHTML, like Gecko) Chrome/98.0.4758.102 Safari/537.36" etag="3Wn1mYnbTN6VmIMIEhIP" version="15.5.4" type="embed" pages="5"><diagram id="hvb5-evO5CEhQdUVUnic" name="USEcase "><mxGraphModel dx="858" dy="5296" grid="1" gridSize="10" guides="1" tooltips="1" connect="1" arrows="1" fold="1" page="1" pageScale="1" pageWidth="3300" pageHeight="4681" math="0" shadow="0"><root><mxCell id="0"/><mxCell id="1" parent="0"/><mxCell id="cM7lnOa8xKsac278n9ST-1" value="" style="whiteSpace=wrap;html=1;aspect=fixed;" parent="1" vertex="1"><mxGeometry x="530" y="-10" width="1010" height="1010" as="geometry"/></mxCell><mxCell id="SN7ESuGg-9dV5CbwiE7h-20" value="상품DB" style="shape=umlFrame;whiteSpace=wrap;html=1;" parent="1" vertex="1"><mxGeometry x="650" y="30" width="540" height="200" as="geometry"/></mxCell><mxCell id="SN7ESuGg-9dV5CbwiE7h-22" value="회원DB" style="shape=umlFrame;whiteSpace=wrap;html=1;" parent="1" vertex="1"><mxGeometry x="610" y="450" width="870" height="270" as="geometry"/></mxCell><mxCell id="Kv26vEHC08VBiixHVHI5-12" style="rounded=0;orthogonalLoop=1;jettySize=auto;html=1;edgeStyle=orthogonalEdgeStyle;" parent="1" source="Kv26vEHC08VBiixHVHI5-2" target="Kv26vEHC08VBiixHVHI5-6" edge="1"><mxGeometry relative="1" as="geometry"><Array as="points"><mxPoint x="1085" y="210"/><mxPoint x="1085" y="210"/></Array></mxGeometry></mxCell><mxCell id="Kv26vEHC08VBiixHVHI5-13" style="edgeStyle=orthogonalEdgeStyle;rounded=0;orthogonalLoop=1;jettySize=auto;html=1;" parent="1" source="Kv26vEHC08VBiixHVHI5-2" target="Kv26vEHC08VBiixHVHI5-7" edge="1"><mxGeometry relative="1" as="geometry"><Array as="points"><mxPoint x="790" y="405"/></Array><mxPoint x="887.1071665146746" y="565.0526315789475" as="targetPoint"/></mxGeometry></mxCell><mxCell id="Kv26vEHC08VBiixHVHI5-2" value="직원" style="shape=umlActor;verticalLabelPosition=bottom;verticalAlign=top;html=1;" parent="1" vertex="1"><mxGeometry x="1070" y="300" width="30" height="60" as="geometry"/></mxCell><mxCell id="Kv26vEHC08VBiixHVHI5-14" style="edgeStyle=orthogonalEdgeStyle;rounded=0;orthogonalLoop=1;jettySize=auto;html=1;" parent="1" source="Kv26vEHC08VBiixHVHI5-3" target="Kv26vEHC08VBiixHVHI5-8" edge="1"><mxGeometry relative="1" as="geometry"><Array as="points"><mxPoint x="825" y="210"/><mxPoint x="825" y="210"/></Array></mxGeometry></mxCell><mxCell id="Kv26vEHC08VBiixHVHI5-15" style="edgeStyle=orthogonalEdgeStyle;rounded=0;orthogonalLoop=1;jettySize=auto;html=1;" parent="1" source="Kv26vEHC08VBiixHVHI5-3" target="Kv26vEHC08VBiixHVHI5-7" edge="1"><mxGeometry relative="1" as="geometry"><Array as="points"><mxPoint x="825" y="390"/><mxPoint x="780" y="390"/></Array></mxGeometry></mxCell><mxCell id="Kv26vEHC08VBiixHVHI5-3" value="고객" style="shape=umlActor;verticalLabelPosition=bottom;verticalAlign=top;html=1;" parent="1" vertex="1"><mxGeometry x="810" y="290" width="30" height="60" as="geometry"/></mxCell><mxCell id="JjDydGUEUOhYbfb6GzUT-12" value="&amp;lt;&amp;lt;Include&amp;gt;&amp;gt;" style="edgeStyle=orthogonalEdgeStyle;rounded=0;orthogonalLoop=1;jettySize=auto;html=1;dashed=1;" parent="1" source="Kv26vEHC08VBiixHVHI5-6" target="Kv26vEHC08VBiixHVHI5-9" edge="1"><mxGeometry relative="1" as="geometry"/></mxCell><mxCell id="Kv26vEHC08VBiixHVHI5-6" value="상품관리" style="ellipse;whiteSpace=wrap;html=1;" parent="1" vertex="1"><mxGeometry x="1055" y="130" width="60" height="60" as="geometry"/></mxCell><mxCell id="JjDydGUEUOhYbfb6GzUT-13" value="&amp;lt;&amp;lt;Include&amp;gt;&amp;gt;" style="edgeStyle=orthogonalEdgeStyle;rounded=0;orthogonalLoop=1;jettySize=auto;html=1;dashed=1;" parent="1" source="Kv26vEHC08VBiixHVHI5-7" target="Kv26vEHC08VBiixHVHI5-9" edge="1"><mxGeometry relative="1" as="geometry"><Array as="points"><mxPoint x="840" y="540"/><mxPoint x="840" y="480"/><mxPoint x="1240" y="480"/><mxPoint x="1240" y="565"/></Array></mxGeometry></mxCell><mxCell id="Kv26vEHC08VBiixHVHI5-7" value="회원&lt;br&gt;" style="ellipse;whiteSpace=wrap;html=1;" parent="1" vertex="1"><mxGeometry x="750" y="510" width="60" height="60" as="geometry"/></mxCell><mxCell id="Kv26vEHC08VBiixHVHI5-8" value="상품조회" style="ellipse;whiteSpace=wrap;html=1;" parent="1" vertex="1"><mxGeometry x="795" y="130" width="60" height="60" as="geometry"/></mxCell><mxCell id="Kv26vEHC08VBiixHVHI5-9" value="인증" style="ellipse;whiteSpace=wrap;html=1;" parent="1" vertex="1"><mxGeometry x="1270" y="530" width="80" height="70" as="geometry"/></mxCell><mxCell id="JjDydGUEUOhYbfb6GzUT-10" value="&amp;lt;&amp;lt;Extends&amp;gt;&amp;gt;" style="edgeStyle=orthogonalEdgeStyle;rounded=0;orthogonalLoop=1;jettySize=auto;html=1;entryX=1;entryY=0.5;entryDx=0;entryDy=0;dashed=1;" parent="1" source="Kv26vEHC08VBiixHVHI5-10" target="Kv26vEHC08VBiixHVHI5-67" edge="1"><mxGeometry relative="1" as="geometry"/></mxCell><mxCell id="Kv26vEHC08VBiixHVHI5-10" value="결제" style="ellipse;whiteSpace=wrap;html=1;" parent="1" vertex="1"><mxGeometry x="1050" y="500" width="60" height="60" as="geometry"/></mxCell><mxCell id="Kv26vEHC08VBiixHVHI5-11" value="장바구니 담기" style="ellipse;whiteSpace=wrap;html=1;rotation=0;" parent="1" vertex="1"><mxGeometry x="680" y="130" width="60" height="60" as="geometry"/></mxCell><mxCell id="Kv26vEHC08VBiixHVHI5-30" style="edgeStyle=orthogonalEdgeStyle;rounded=0;orthogonalLoop=1;jettySize=auto;html=1;" parent="1" source="Kv26vEHC08VBiixHVHI5-28" target="Kv26vEHC08VBiixHVHI5-8" edge="1"><mxGeometry relative="1" as="geometry"><Array as="points"><mxPoint x="785" y="110"/><mxPoint x="825" y="110"/></Array></mxGeometry></mxCell><mxCell id="Kv26vEHC08VBiixHVHI5-28" value="전체" style="ellipse;whiteSpace=wrap;html=1;" parent="1" vertex="1"><mxGeometry x="765" y="50" width="40" height="40" as="geometry"/></mxCell><mxCell id="Kv26vEHC08VBiixHVHI5-31" style="edgeStyle=orthogonalEdgeStyle;rounded=0;orthogonalLoop=1;jettySize=auto;html=1;" parent="1" source="Kv26vEHC08VBiixHVHI5-29" target="Kv26vEHC08VBiixHVHI5-8" edge="1"><mxGeometry relative="1" as="geometry"><Array as="points"><mxPoint x="865" y="110"/><mxPoint x="825" y="110"/></Array></mxGeometry></mxCell><mxCell id="Kv26vEHC08VBiixHVHI5-29" value="검색" style="ellipse;whiteSpace=wrap;html=1;" parent="1" vertex="1"><mxGeometry x="845" y="50" width="40" height="40" as="geometry"/></mxCell><mxCell id="Kv26vEHC08VBiixHVHI5-35" style="edgeStyle=orthogonalEdgeStyle;rounded=0;orthogonalLoop=1;jettySize=auto;html=1;" parent="1" source="Kv26vEHC08VBiixHVHI5-32" target="Kv26vEHC08VBiixHVHI5-6" edge="1"><mxGeometry relative="1" as="geometry"/></mxCell><mxCell id="Kv26vEHC08VBiixHVHI5-32" value="추가" style="ellipse;whiteSpace=wrap;html=1;" parent="1" vertex="1"><mxGeometry x="1125" y="60" width="40" height="40" as="geometry"/></mxCell><mxCell id="Kv26vEHC08VBiixHVHI5-34" style="edgeStyle=orthogonalEdgeStyle;rounded=0;orthogonalLoop=1;jettySize=auto;html=1;" parent="1" source="Kv26vEHC08VBiixHVHI5-33" target="Kv26vEHC08VBiixHVHI5-6" edge="1"><mxGeometry relative="1" as="geometry"><Array as="points"><mxPoint x="1085" y="80"/></Array></mxGeometry></mxCell><mxCell id="Kv26vEHC08VBiixHVHI5-33" value="수정" style="ellipse;whiteSpace=wrap;html=1;" parent="1" vertex="1"><mxGeometry x="1005" y="60" width="40" height="40" as="geometry"/></mxCell><mxCell id="Kv26vEHC08VBiixHVHI5-37" style="edgeStyle=orthogonalEdgeStyle;rounded=0;orthogonalLoop=1;jettySize=auto;html=1;" parent="1" source="Kv26vEHC08VBiixHVHI5-36" target="Kv26vEHC08VBiixHVHI5-7" edge="1"><mxGeometry relative="1" as="geometry"/></mxCell><mxCell id="Kv26vEHC08VBiixHVHI5-36" value="가입" style="ellipse;whiteSpace=wrap;html=1;" parent="1" vertex="1"><mxGeometry x="730" y="630" width="40" height="40" as="geometry"/></mxCell><mxCell id="Kv26vEHC08VBiixHVHI5-39" style="edgeStyle=orthogonalEdgeStyle;rounded=0;orthogonalLoop=1;jettySize=auto;html=1;" parent="1" source="Kv26vEHC08VBiixHVHI5-38" target="Kv26vEHC08VBiixHVHI5-7" edge="1"><mxGeometry relative="1" as="geometry"/></mxCell><mxCell id="Kv26vEHC08VBiixHVHI5-38" value="수정" style="ellipse;whiteSpace=wrap;html=1;" parent="1" vertex="1"><mxGeometry x="780" y="630" width="40" height="40" as="geometry"/></mxCell><mxCell id="Kv26vEHC08VBiixHVHI5-41" style="edgeStyle=orthogonalEdgeStyle;rounded=0;orthogonalLoop=1;jettySize=auto;html=1;" parent="1" source="Kv26vEHC08VBiixHVHI5-40" target="Kv26vEHC08VBiixHVHI5-7" edge="1"><mxGeometry relative="1" as="geometry"><Array as="points"><mxPoint x="850" y="600"/><mxPoint x="780" y="600"/></Array></mxGeometry></mxCell><mxCell id="Kv26vEHC08VBiixHVHI5-40" value="조회" style="ellipse;whiteSpace=wrap;html=1;" parent="1" vertex="1"><mxGeometry x="830" y="630" width="40" height="40" as="geometry"/></mxCell><mxCell id="gFiut0iDrLe7WYOQsWxN-4" style="edgeStyle=orthogonalEdgeStyle;rounded=0;orthogonalLoop=1;jettySize=auto;html=1;" parent="1" source="Kv26vEHC08VBiixHVHI5-45" target="Kv26vEHC08VBiixHVHI5-7" edge="1"><mxGeometry relative="1" as="geometry"><Array as="points"><mxPoint x="700" y="600"/><mxPoint x="780" y="600"/></Array></mxGeometry></mxCell><mxCell id="Kv26vEHC08VBiixHVHI5-45" value="삭제" style="ellipse;whiteSpace=wrap;html=1;" parent="1" vertex="1"><mxGeometry x="680" y="630" width="40" height="40" as="geometry"/></mxCell><mxCell id="JjDydGUEUOhYbfb6GzUT-7" style="edgeStyle=orthogonalEdgeStyle;rounded=0;orthogonalLoop=1;jettySize=auto;html=1;" parent="1" source="Kv26vEHC08VBiixHVHI5-56" target="Kv26vEHC08VBiixHVHI5-9" edge="1"><mxGeometry relative="1" as="geometry"><Array as="points"><mxPoint x="1375" y="630"/><mxPoint x="1375" y="570"/></Array></mxGeometry></mxCell><mxCell id="Kv26vEHC08VBiixHVHI5-56" value="모바일" style="ellipse;whiteSpace=wrap;html=1;direction=south;" parent="1" vertex="1"><mxGeometry x="1415" y="610" width="40" height="40" as="geometry"/></mxCell><mxCell id="UOlsy7yWXwOPzBkwPQhx-1" value="" style="edgeStyle=orthogonalEdgeStyle;rounded=0;orthogonalLoop=1;jettySize=auto;html=1;" parent="1" source="Kv26vEHC08VBiixHVHI5-67" target="tokyzkb4w2ci1-rdvXX9-3" edge="1"><mxGeometry relative="1" as="geometry"><Array as="points"/></mxGeometry></mxCell><mxCell id="Kv26vEHC08VBiixHVHI5-67" value="조회" style="ellipse;whiteSpace=wrap;html=1;" parent="1" vertex="1"><mxGeometry x="950" y="630" width="40" height="40" as="geometry"/></mxCell><mxCell id="tokyzkb4w2ci1-rdvXX9-2" value="extends" style="html=1;verticalAlign=bottom;endArrow=open;dashed=1;endSize=8;rounded=0;edgeStyle=orthogonalEdgeStyle;" parent="1" source="Kv26vEHC08VBiixHVHI5-11" target="Kv26vEHC08VBiixHVHI5-8" edge="1"><mxGeometry x="-0.0162" y="1" relative="1" as="geometry"><mxPoint x="775" y="170" as="sourcePoint"/><mxPoint x="1315.0000000000173" y="170" as="targetPoint"/><mxPoint as="offset"/></mxGeometry></mxCell><mxCell id="tokyzkb4w2ci1-rdvXX9-3" value="장바구니&lt;br&gt;관리" style="ellipse;whiteSpace=wrap;html=1;" parent="1" vertex="1"><mxGeometry x="915" y="510" width="60" height="60" as="geometry"/></mxCell><mxCell id="tokyzkb4w2ci1-rdvXX9-15" style="edgeStyle=orthogonalEdgeStyle;rounded=0;orthogonalLoop=1;jettySize=auto;html=1;" parent="1" source="Kv26vEHC08VBiixHVHI5-3" target="tokyzkb4w2ci1-rdvXX9-3" edge="1"><mxGeometry relative="1" as="geometry"><mxPoint x="950" y="320" as="sourcePoint"/><mxPoint x="649.6757273574524" y="292.0663531547656" as="targetPoint"/><Array as="points"><mxPoint x="825" y="390"/><mxPoint x="945" y="390"/></Array></mxGeometry></mxCell><mxCell id="JjDydGUEUOhYbfb6GzUT-8" style="edgeStyle=orthogonalEdgeStyle;rounded=0;orthogonalLoop=1;jettySize=auto;html=1;" parent="1" source="UOlsy7yWXwOPzBkwPQhx-2" target="tokyzkb4w2ci1-rdvXX9-3" edge="1"><mxGeometry relative="1" as="geometry"/></mxCell><mxCell id="UOlsy7yWXwOPzBkwPQhx-2" value="삭제" style="ellipse;whiteSpace=wrap;html=1;" parent="1" vertex="1"><mxGeometry x="900" y="630" width="40" height="40" as="geometry"/></mxCell><mxCell id="Kv26vEHC08VBiixHVHI5-62" value="카드" style="ellipse;whiteSpace=wrap;html=1;" parent="1" vertex="1"><mxGeometry x="1150" y="620.04" width="40" height="40" as="geometry"/></mxCell><mxCell id="UOlsy7yWXwOPzBkwPQhx-5" value="" style="edgeStyle=orthogonalEdgeStyle;rounded=0;orthogonalLoop=1;jettySize=auto;html=1;endArrow=none;startArrow=open;startFill=0;" parent="1" source="Kv26vEHC08VBiixHVHI5-10" target="Kv26vEHC08VBiixHVHI5-62" edge="1"><mxGeometry relative="1" as="geometry"><mxPoint x="1129.9999684939976" y="529.9965217391305" as="sourcePoint"/><mxPoint x="1000" y="580.04" as="targetPoint"/><Array as="points"><mxPoint x="1140" y="530"/><mxPoint x="1140" y="580"/><mxPoint x="1170" y="580"/></Array></mxGeometry></mxCell></root></mxGraphModel></diagram><diagram id="bULfts8UCHqkT_8KDw2p" name="Class"><mxGraphModel dx="1226" dy="5560" grid="1" gridSize="10" guides="1" tooltips="1" connect="1" arrows="1" fold="1" page="1" pageScale="1" pageWidth="3300" pageHeight="4681" math="0" shadow="0"><root><mxCell id="0"/><mxCell id="1" parent="0"/><mxCell id="MyEk56ZyarM5kJLJxkKy-3" value="" style="rounded=0;whiteSpace=wrap;html=1;" parent="1" vertex="1"><mxGeometry x="480" y="-110" width="660" height="470" as="geometry"/></mxCell><mxCell id="MyEk56ZyarM5kJLJxkKy-1" value="" style="rounded=0;whiteSpace=wrap;html=1;" parent="1" vertex="1"><mxGeometry x="430" y="590" width="1080" height="510" as="geometry"/></mxCell><mxCell id="0WW8wpbG1QDetCVFKokk-1" value="상품목록: 상품 조회" style="shape=table;startSize=30;container=1;collapsible=1;childLayout=tableLayout;fixedRows=1;rowLines=0;fontStyle=1;align=center;resizeLast=1;" parent="1" vertex="1"><mxGeometry x="610" y="20" width="180" height="150" as="geometry"/></mxCell><mxCell id="0WW8wpbG1QDetCVFKokk-2" value="" style="shape=tableRow;horizontal=0;startSize=0;swimlaneHead=0;swimlaneBody=0;fillColor=none;collapsible=0;dropTarget=0;points=[[0,0.5],[1,0.5]];portConstraint=eastwest;top=0;left=0;right=0;bottom=1;" parent="0WW8wpbG1QDetCVFKokk-1" vertex="1"><mxGeometry y="30" width="180" height="30" as="geometry"/></mxCell><mxCell id="0WW8wpbG1QDetCVFKokk-3" value="PK" style="shape=partialRectangle;connectable=0;fillColor=none;top=0;left=0;bottom=0;right=0;fontStyle=1;overflow=hidden;" parent="0WW8wpbG1QDetCVFKokk-2" vertex="1"><mxGeometry width="30" height="30" as="geometry"><mxRectangle width="30" height="30" as="alternateBounds"/></mxGeometry></mxCell><mxCell id="0WW8wpbG1QDetCVFKokk-4" value="외래키 : 상품코드" style="shape=partialRectangle;connectable=0;fillColor=none;top=0;left=0;bottom=0;right=0;align=left;spacingLeft=6;fontStyle=5;overflow=hidden;" parent="0WW8wpbG1QDetCVFKokk-2" vertex="1"><mxGeometry x="30" width="150" height="30" as="geometry"><mxRectangle width="150" height="30" as="alternateBounds"/></mxGeometry></mxCell><mxCell id="0WW8wpbG1QDetCVFKokk-5" value="" style="shape=tableRow;horizontal=0;startSize=0;swimlaneHead=0;swimlaneBody=0;fillColor=none;collapsible=0;dropTarget=0;points=[[0,0.5],[1,0.5]];portConstraint=eastwest;top=0;left=0;right=0;bottom=0;" parent="0WW8wpbG1QDetCVFKokk-1" vertex="1"><mxGeometry y="60" width="180" height="30" as="geometry"/></mxCell><mxCell id="0WW8wpbG1QDetCVFKokk-6" value="" style="shape=partialRectangle;connectable=0;fillColor=none;top=0;left=0;bottom=0;right=0;editable=1;overflow=hidden;" parent="0WW8wpbG1QDetCVFKokk-5" vertex="1"><mxGeometry width="30" height="30" as="geometry"><mxRectangle width="30" height="30" as="alternateBounds"/></mxGeometry></mxCell><mxCell id="0WW8wpbG1QDetCVFKokk-7" value="상품이름 : String : 외" style="shape=partialRectangle;connectable=0;fillColor=none;top=0;left=0;bottom=0;right=0;align=left;spacingLeft=6;overflow=hidden;" parent="0WW8wpbG1QDetCVFKokk-5" vertex="1"><mxGeometry x="30" width="150" height="30" as="geometry"><mxRectangle width="150" height="30" as="alternateBounds"/></mxGeometry></mxCell><mxCell id="0WW8wpbG1QDetCVFKokk-8" value="" style="shape=tableRow;horizontal=0;startSize=0;swimlaneHead=0;swimlaneBody=0;fillColor=none;collapsible=0;dropTarget=0;points=[[0,0.5],[1,0.5]];portConstraint=eastwest;top=0;left=0;right=0;bottom=0;" parent="0WW8wpbG1QDetCVFKokk-1" vertex="1"><mxGeometry y="90" width="180" height="30" as="geometry"/></mxCell><mxCell id="0WW8wpbG1QDetCVFKokk-9" value="" style="shape=partialRectangle;connectable=0;fillColor=none;top=0;left=0;bottom=0;right=0;editable=1;overflow=hidden;" parent="0WW8wpbG1QDetCVFKokk-8" vertex="1"><mxGeometry width="30" height="30" as="geometry"><mxRectangle width="30" height="30" as="alternateBounds"/></mxGeometry></mxCell><mxCell id="0WW8wpbG1QDetCVFKokk-10" value="상품 수량 : int : 외" style="shape=partialRectangle;connectable=0;fillColor=none;top=0;left=0;bottom=0;right=0;align=left;spacingLeft=6;overflow=hidden;" parent="0WW8wpbG1QDetCVFKokk-8" vertex="1"><mxGeometry x="30" width="150" height="30" as="geometry"><mxRectangle width="150" height="30" as="alternateBounds"/></mxGeometry></mxCell><mxCell id="0WW8wpbG1QDetCVFKokk-11" value="" style="shape=tableRow;horizontal=0;startSize=0;swimlaneHead=0;swimlaneBody=0;fillColor=none;collapsible=0;dropTarget=0;points=[[0,0.5],[1,0.5]];portConstraint=eastwest;top=0;left=0;right=0;bottom=0;" parent="0WW8wpbG1QDetCVFKokk-1" vertex="1"><mxGeometry y="120" width="180" height="30" as="geometry"/></mxCell><mxCell id="0WW8wpbG1QDetCVFKokk-12" value="" style="shape=partialRectangle;connectable=0;fillColor=none;top=0;left=0;bottom=0;right=0;editable=1;overflow=hidden;" parent="0WW8wpbG1QDetCVFKokk-11" vertex="1"><mxGeometry width="30" height="30" as="geometry"><mxRectangle width="30" height="30" as="alternateBounds"/></mxGeometry></mxCell><mxCell id="0WW8wpbG1QDetCVFKokk-13" value="상품 가격 : int 외" style="shape=partialRectangle;connectable=0;fillColor=none;top=0;left=0;bottom=0;right=0;align=left;spacingLeft=6;overflow=hidden;" parent="0WW8wpbG1QDetCVFKokk-11" vertex="1"><mxGeometry x="30" width="150" height="30" as="geometry"><mxRectangle width="150" height="30" as="alternateBounds"/></mxGeometry></mxCell><mxCell id="0WW8wpbG1QDetCVFKokk-14" value="상품 관리" style="shape=table;startSize=30;container=1;collapsible=1;childLayout=tableLayout;fixedRows=1;rowLines=0;fontStyle=1;align=center;resizeLast=1;" parent="1" vertex="1"><mxGeometry x="840" y="20" width="180" height="180" as="geometry"/></mxCell><mxCell id="0WW8wpbG1QDetCVFKokk-15" value="" style="shape=tableRow;horizontal=0;startSize=0;swimlaneHead=0;swimlaneBody=0;fillColor=none;collapsible=0;dropTarget=0;points=[[0,0.5],[1,0.5]];portConstraint=eastwest;top=0;left=0;right=0;bottom=1;" parent="0WW8wpbG1QDetCVFKokk-14" vertex="1"><mxGeometry y="30" width="180" height="30" as="geometry"/></mxCell><mxCell id="0WW8wpbG1QDetCVFKokk-16" value="PK" style="shape=partialRectangle;connectable=0;fillColor=none;top=0;left=0;bottom=0;right=0;fontStyle=1;overflow=hidden;" parent="0WW8wpbG1QDetCVFKokk-15" vertex="1"><mxGeometry width="30" height="30" as="geometry"><mxRectangle width="30" height="30" as="alternateBounds"/></mxGeometry></mxCell><mxCell id="0WW8wpbG1QDetCVFKokk-17" value="상품코드 " style="shape=partialRectangle;connectable=0;fillColor=none;top=0;left=0;bottom=0;right=0;align=left;spacingLeft=6;fontStyle=5;overflow=hidden;" parent="0WW8wpbG1QDetCVFKokk-15" vertex="1"><mxGeometry x="30" width="150" height="30" as="geometry"><mxRectangle width="150" height="30" as="alternateBounds"/></mxGeometry></mxCell><mxCell id="0WW8wpbG1QDetCVFKokk-18" value="" style="shape=tableRow;horizontal=0;startSize=0;swimlaneHead=0;swimlaneBody=0;fillColor=none;collapsible=0;dropTarget=0;points=[[0,0.5],[1,0.5]];portConstraint=eastwest;top=0;left=0;right=0;bottom=0;" parent="0WW8wpbG1QDetCVFKokk-14" vertex="1"><mxGeometry y="60" width="180" height="30" as="geometry"/></mxCell><mxCell id="0WW8wpbG1QDetCVFKokk-19" value="" style="shape=partialRectangle;connectable=0;fillColor=none;top=0;left=0;bottom=0;right=0;editable=1;overflow=hidden;" parent="0WW8wpbG1QDetCVFKokk-18" vertex="1"><mxGeometry width="30" height="30" as="geometry"><mxRectangle width="30" height="30" as="alternateBounds"/></mxGeometry></mxCell><mxCell id="0WW8wpbG1QDetCVFKokk-20" value="상품 이름 : St" style="shape=partialRectangle;connectable=0;fillColor=none;top=0;left=0;bottom=0;right=0;align=left;spacingLeft=6;overflow=hidden;" parent="0WW8wpbG1QDetCVFKokk-18" vertex="1"><mxGeometry x="30" width="150" height="30" as="geometry"><mxRectangle width="150" height="30" as="alternateBounds"/></mxGeometry></mxCell><mxCell id="0WW8wpbG1QDetCVFKokk-21" value="" style="shape=tableRow;horizontal=0;startSize=0;swimlaneHead=0;swimlaneBody=0;fillColor=none;collapsible=0;dropTarget=0;points=[[0,0.5],[1,0.5]];portConstraint=eastwest;top=0;left=0;right=0;bottom=0;" parent="0WW8wpbG1QDetCVFKokk-14" vertex="1"><mxGeometry y="90" width="180" height="30" as="geometry"/></mxCell><mxCell id="0WW8wpbG1QDetCVFKokk-22" value="" style="shape=partialRectangle;connectable=0;fillColor=none;top=0;left=0;bottom=0;right=0;editable=1;overflow=hidden;" parent="0WW8wpbG1QDetCVFKokk-21" vertex="1"><mxGeometry width="30" height="30" as="geometry"><mxRectangle width="30" height="30" as="alternateBounds"/></mxGeometry></mxCell><mxCell id="0WW8wpbG1QDetCVFKokk-23" value="상품 수량 : int" style="shape=partialRectangle;connectable=0;fillColor=none;top=0;left=0;bottom=0;right=0;align=left;spacingLeft=6;overflow=hidden;" parent="0WW8wpbG1QDetCVFKokk-21" vertex="1"><mxGeometry x="30" width="150" height="30" as="geometry"><mxRectangle width="150" height="30" as="alternateBounds"/></mxGeometry></mxCell><mxCell id="0WW8wpbG1QDetCVFKokk-24" value="" style="shape=tableRow;horizontal=0;startSize=0;swimlaneHead=0;swimlaneBody=0;fillColor=none;collapsible=0;dropTarget=0;points=[[0,0.5],[1,0.5]];portConstraint=eastwest;top=0;left=0;right=0;bottom=0;" parent="0WW8wpbG1QDetCVFKokk-14" vertex="1"><mxGeometry y="120" width="180" height="30" as="geometry"/></mxCell><mxCell id="0WW8wpbG1QDetCVFKokk-25" value="" style="shape=partialRectangle;connectable=0;fillColor=none;top=0;left=0;bottom=0;right=0;editable=1;overflow=hidden;" parent="0WW8wpbG1QDetCVFKokk-24" vertex="1"><mxGeometry width="30" height="30" as="geometry"><mxRectangle width="30" height="30" as="alternateBounds"/></mxGeometry></mxCell><mxCell id="0WW8wpbG1QDetCVFKokk-26" value="상품 가격 : int" style="shape=partialRectangle;connectable=0;fillColor=none;top=0;left=0;bottom=0;right=0;align=left;spacingLeft=6;overflow=hidden;" parent="0WW8wpbG1QDetCVFKokk-24" vertex="1"><mxGeometry x="30" width="150" height="30" as="geometry"><mxRectangle width="150" height="30" as="alternateBounds"/></mxGeometry></mxCell><mxCell id="0WW8wpbG1QDetCVFKokk-30" value="" style="shape=tableRow;horizontal=0;startSize=0;swimlaneHead=0;swimlaneBody=0;fillColor=none;collapsible=0;dropTarget=0;points=[[0,0.5],[1,0.5]];portConstraint=eastwest;top=0;left=0;right=0;bottom=0;" parent="0WW8wpbG1QDetCVFKokk-14" vertex="1"><mxGeometry y="150" width="180" height="30" as="geometry"/></mxCell><mxCell id="0WW8wpbG1QDetCVFKokk-31" value="" style="shape=partialRectangle;connectable=0;fillColor=none;top=0;left=0;bottom=0;right=0;editable=1;overflow=hidden;" parent="0WW8wpbG1QDetCVFKokk-30" vertex="1"><mxGeometry width="30" height="30" as="geometry"><mxRectangle width="30" height="30" as="alternateBounds"/></mxGeometry></mxCell><mxCell id="0WW8wpbG1QDetCVFKokk-32" value="권한(관리자) : 외" style="shape=partialRectangle;connectable=0;fillColor=none;top=0;left=0;bottom=0;right=0;align=left;spacingLeft=6;overflow=hidden;" parent="0WW8wpbG1QDetCVFKokk-30" vertex="1"><mxGeometry x="30" width="150" height="30" as="geometry"><mxRectangle width="150" height="30" as="alternateBounds"/></mxGeometry></mxCell><mxCell id="0WW8wpbG1QDetCVFKokk-36" value="회원(직원)" style="shape=table;startSize=30;container=1;collapsible=1;childLayout=tableLayout;fixedRows=1;rowLines=0;fontStyle=1;align=center;resizeLast=1;" parent="1" vertex="1"><mxGeometry x="490" y="720" width="180" height="270" as="geometry"/></mxCell><mxCell id="0WW8wpbG1QDetCVFKokk-37" value="" style="shape=tableRow;horizontal=0;startSize=0;swimlaneHead=0;swimlaneBody=0;fillColor=none;collapsible=0;dropTarget=0;points=[[0,0.5],[1,0.5]];portConstraint=eastwest;top=0;left=0;right=0;bottom=1;" parent="0WW8wpbG1QDetCVFKokk-36" vertex="1"><mxGeometry y="30" width="180" height="30" as="geometry"/></mxCell><mxCell id="0WW8wpbG1QDetCVFKokk-38" value="PK" style="shape=partialRectangle;connectable=0;fillColor=none;top=0;left=0;bottom=0;right=0;fontStyle=1;overflow=hidden;" parent="0WW8wpbG1QDetCVFKokk-37" vertex="1"><mxGeometry width="30" height="30" as="geometry"><mxRectangle width="30" height="30" as="alternateBounds"/></mxGeometry></mxCell><mxCell id="0WW8wpbG1QDetCVFKokk-39" value="아이디(이메일) : St" style="shape=partialRectangle;connectable=0;fillColor=none;top=0;left=0;bottom=0;right=0;align=left;spacingLeft=6;fontStyle=5;overflow=hidden;" parent="0WW8wpbG1QDetCVFKokk-37" vertex="1"><mxGeometry x="30" width="150" height="30" as="geometry"><mxRectangle width="150" height="30" as="alternateBounds"/></mxGeometry></mxCell><mxCell id="0WW8wpbG1QDetCVFKokk-40" value="" style="shape=tableRow;horizontal=0;startSize=0;swimlaneHead=0;swimlaneBody=0;fillColor=none;collapsible=0;dropTarget=0;points=[[0,0.5],[1,0.5]];portConstraint=eastwest;top=0;left=0;right=0;bottom=0;" parent="0WW8wpbG1QDetCVFKokk-36" vertex="1"><mxGeometry y="60" width="180" height="30" as="geometry"/></mxCell><mxCell id="0WW8wpbG1QDetCVFKokk-41" value="" style="shape=partialRectangle;connectable=0;fillColor=none;top=0;left=0;bottom=0;right=0;editable=1;overflow=hidden;" parent="0WW8wpbG1QDetCVFKokk-40" vertex="1"><mxGeometry width="30" height="30" as="geometry"><mxRectangle width="30" height="30" as="alternateBounds"/></mxGeometry></mxCell><mxCell id="0WW8wpbG1QDetCVFKokk-42" value="비밀번호 : St" style="shape=partialRectangle;connectable=0;fillColor=none;top=0;left=0;bottom=0;right=0;align=left;spacingLeft=6;overflow=hidden;" parent="0WW8wpbG1QDetCVFKokk-40" vertex="1"><mxGeometry x="30" width="150" height="30" as="geometry"><mxRectangle width="150" height="30" as="alternateBounds"/></mxGeometry></mxCell><mxCell id="0WW8wpbG1QDetCVFKokk-43" value="" style="shape=tableRow;horizontal=0;startSize=0;swimlaneHead=0;swimlaneBody=0;fillColor=none;collapsible=0;dropTarget=0;points=[[0,0.5],[1,0.5]];portConstraint=eastwest;top=0;left=0;right=0;bottom=0;" parent="0WW8wpbG1QDetCVFKokk-36" vertex="1"><mxGeometry y="90" width="180" height="30" as="geometry"/></mxCell><mxCell id="0WW8wpbG1QDetCVFKokk-44" value="" style="shape=partialRectangle;connectable=0;fillColor=none;top=0;left=0;bottom=0;right=0;editable=1;overflow=hidden;" parent="0WW8wpbG1QDetCVFKokk-43" vertex="1"><mxGeometry width="30" height="30" as="geometry"><mxRectangle width="30" height="30" as="alternateBounds"/></mxGeometry></mxCell><mxCell id="0WW8wpbG1QDetCVFKokk-45" value="이름 : St" style="shape=partialRectangle;connectable=0;fillColor=none;top=0;left=0;bottom=0;right=0;align=left;spacingLeft=6;overflow=hidden;" parent="0WW8wpbG1QDetCVFKokk-43" vertex="1"><mxGeometry x="30" width="150" height="30" as="geometry"><mxRectangle width="150" height="30" as="alternateBounds"/></mxGeometry></mxCell><mxCell id="0WW8wpbG1QDetCVFKokk-46" value="" style="shape=tableRow;horizontal=0;startSize=0;swimlaneHead=0;swimlaneBody=0;fillColor=none;collapsible=0;dropTarget=0;points=[[0,0.5],[1,0.5]];portConstraint=eastwest;top=0;left=0;right=0;bottom=0;" parent="0WW8wpbG1QDetCVFKokk-36" vertex="1"><mxGeometry y="120" width="180" height="30" as="geometry"/></mxCell><mxCell id="0WW8wpbG1QDetCVFKokk-47" value="" style="shape=partialRectangle;connectable=0;fillColor=none;top=0;left=0;bottom=0;right=0;editable=1;overflow=hidden;" parent="0WW8wpbG1QDetCVFKokk-46" vertex="1"><mxGeometry width="30" height="30" as="geometry"><mxRectangle width="30" height="30" as="alternateBounds"/></mxGeometry></mxCell><mxCell id="0WW8wpbG1QDetCVFKokk-48" value="주소 : St" style="shape=partialRectangle;connectable=0;fillColor=none;top=0;left=0;bottom=0;right=0;align=left;spacingLeft=6;overflow=hidden;" parent="0WW8wpbG1QDetCVFKokk-46" vertex="1"><mxGeometry x="30" width="150" height="30" as="geometry"><mxRectangle width="150" height="30" as="alternateBounds"/></mxGeometry></mxCell><mxCell id="0WW8wpbG1QDetCVFKokk-49" value="" style="shape=tableRow;horizontal=0;startSize=0;swimlaneHead=0;swimlaneBody=0;fillColor=none;collapsible=0;dropTarget=0;points=[[0,0.5],[1,0.5]];portConstraint=eastwest;top=0;left=0;right=0;bottom=0;" parent="0WW8wpbG1QDetCVFKokk-36" vertex="1"><mxGeometry y="150" width="180" height="30" as="geometry"/></mxCell><mxCell id="0WW8wpbG1QDetCVFKokk-50" value="" style="shape=partialRectangle;connectable=0;fillColor=none;top=0;left=0;bottom=0;right=0;editable=1;overflow=hidden;" parent="0WW8wpbG1QDetCVFKokk-49" vertex="1"><mxGeometry width="30" height="30" as="geometry"><mxRectangle width="30" height="30" as="alternateBounds"/></mxGeometry></mxCell><mxCell id="0WW8wpbG1QDetCVFKokk-51" value="연락처 : St" style="shape=partialRectangle;connectable=0;fillColor=none;top=0;left=0;bottom=0;right=0;align=left;spacingLeft=6;overflow=hidden;" parent="0WW8wpbG1QDetCVFKokk-49" vertex="1"><mxGeometry x="30" width="150" height="30" as="geometry"><mxRectangle width="150" height="30" as="alternateBounds"/></mxGeometry></mxCell><mxCell id="0WW8wpbG1QDetCVFKokk-52" value="" style="shape=tableRow;horizontal=0;startSize=0;swimlaneHead=0;swimlaneBody=0;fillColor=none;collapsible=0;dropTarget=0;points=[[0,0.5],[1,0.5]];portConstraint=eastwest;top=0;left=0;right=0;bottom=0;" parent="0WW8wpbG1QDetCVFKokk-36" vertex="1"><mxGeometry y="180" width="180" height="30" as="geometry"/></mxCell><mxCell id="0WW8wpbG1QDetCVFKokk-53" value="" style="shape=partialRectangle;connectable=0;fillColor=none;top=0;left=0;bottom=0;right=0;editable=1;overflow=hidden;" parent="0WW8wpbG1QDetCVFKokk-52" vertex="1"><mxGeometry width="30" height="30" as="geometry"><mxRectangle width="30" height="30" as="alternateBounds"/></mxGeometry></mxCell><mxCell id="0WW8wpbG1QDetCVFKokk-54" value="가입 날짜 : Date" style="shape=partialRectangle;connectable=0;fillColor=none;top=0;left=0;bottom=0;right=0;align=left;spacingLeft=6;overflow=hidden;" parent="0WW8wpbG1QDetCVFKokk-52" vertex="1"><mxGeometry x="30" width="150" height="30" as="geometry"><mxRectangle width="150" height="30" as="alternateBounds"/></mxGeometry></mxCell><mxCell id="0WW8wpbG1QDetCVFKokk-71" value="" style="shape=tableRow;horizontal=0;startSize=0;swimlaneHead=0;swimlaneBody=0;fillColor=none;collapsible=0;dropTarget=0;points=[[0,0.5],[1,0.5]];portConstraint=eastwest;top=0;left=0;right=0;bottom=0;" parent="0WW8wpbG1QDetCVFKokk-36" vertex="1"><mxGeometry y="210" width="180" height="30" as="geometry"/></mxCell><mxCell id="0WW8wpbG1QDetCVFKokk-72" value="" style="shape=partialRectangle;connectable=0;fillColor=none;top=0;left=0;bottom=0;right=0;editable=1;overflow=hidden;" parent="0WW8wpbG1QDetCVFKokk-71" vertex="1"><mxGeometry width="30" height="30" as="geometry"><mxRectangle width="30" height="30" as="alternateBounds"/></mxGeometry></mxCell><mxCell id="0WW8wpbG1QDetCVFKokk-73" value="인증확인 : int ,boolean" style="shape=partialRectangle;connectable=0;fillColor=none;top=0;left=0;bottom=0;right=0;align=left;spacingLeft=6;overflow=hidden;" parent="0WW8wpbG1QDetCVFKokk-71" vertex="1"><mxGeometry x="30" width="150" height="30" as="geometry"><mxRectangle width="150" height="30" as="alternateBounds"/></mxGeometry></mxCell><mxCell id="0WW8wpbG1QDetCVFKokk-55" value="" style="shape=tableRow;horizontal=0;startSize=0;swimlaneHead=0;swimlaneBody=0;fillColor=none;collapsible=0;dropTarget=0;points=[[0,0.5],[1,0.5]];portConstraint=eastwest;top=0;left=0;right=0;bottom=0;" parent="0WW8wpbG1QDetCVFKokk-36" vertex="1"><mxGeometry y="240" width="180" height="30" as="geometry"/></mxCell><mxCell id="0WW8wpbG1QDetCVFKokk-56" value="" style="shape=partialRectangle;connectable=0;fillColor=none;top=0;left=0;bottom=0;right=0;editable=1;overflow=hidden;" parent="0WW8wpbG1QDetCVFKokk-55" vertex="1"><mxGeometry width="30" height="30" as="geometry"><mxRectangle width="30" height="30" as="alternateBounds"/></mxGeometry></mxCell><mxCell id="0WW8wpbG1QDetCVFKokk-57" value="권한 : boolean,int" style="shape=partialRectangle;connectable=0;fillColor=none;top=0;left=0;bottom=0;right=0;align=left;spacingLeft=6;overflow=hidden;" parent="0WW8wpbG1QDetCVFKokk-55" vertex="1"><mxGeometry x="30" width="150" height="30" as="geometry"><mxRectangle width="150" height="30" as="alternateBounds"/></mxGeometry></mxCell><mxCell id="0WW8wpbG1QDetCVFKokk-58" value="인증" style="shape=table;startSize=30;container=1;collapsible=1;childLayout=tableLayout;fixedRows=1;rowLines=0;fontStyle=1;align=center;resizeLast=1;" parent="1" vertex="1"><mxGeometry x="790" y="720" width="180" height="210" as="geometry"/></mxCell><mxCell id="0WW8wpbG1QDetCVFKokk-59" value="" style="shape=tableRow;horizontal=0;startSize=0;swimlaneHead=0;swimlaneBody=0;fillColor=none;collapsible=0;dropTarget=0;points=[[0,0.5],[1,0.5]];portConstraint=eastwest;top=0;left=0;right=0;bottom=1;" parent="0WW8wpbG1QDetCVFKokk-58" vertex="1"><mxGeometry y="30" width="180" height="30" as="geometry"/></mxCell><mxCell id="0WW8wpbG1QDetCVFKokk-60" value="PK" style="shape=partialRectangle;connectable=0;fillColor=none;top=0;left=0;bottom=0;right=0;fontStyle=1;overflow=hidden;" parent="0WW8wpbG1QDetCVFKokk-59" vertex="1"><mxGeometry width="30" height="30" as="geometry"><mxRectangle width="30" height="30" as="alternateBounds"/></mxGeometry></mxCell><mxCell id="0WW8wpbG1QDetCVFKokk-61" value="Index : int  : auto" style="shape=partialRectangle;connectable=0;fillColor=none;top=0;left=0;bottom=0;right=0;align=left;spacingLeft=6;fontStyle=5;overflow=hidden;" parent="0WW8wpbG1QDetCVFKokk-59" vertex="1"><mxGeometry x="30" width="150" height="30" as="geometry"><mxRectangle width="150" height="30" as="alternateBounds"/></mxGeometry></mxCell><mxCell id="0WW8wpbG1QDetCVFKokk-62" value="" style="shape=tableRow;horizontal=0;startSize=0;swimlaneHead=0;swimlaneBody=0;fillColor=none;collapsible=0;dropTarget=0;points=[[0,0.5],[1,0.5]];portConstraint=eastwest;top=0;left=0;right=0;bottom=0;" parent="0WW8wpbG1QDetCVFKokk-58" vertex="1"><mxGeometry y="60" width="180" height="30" as="geometry"/></mxCell><mxCell id="0WW8wpbG1QDetCVFKokk-63" value="" style="shape=partialRectangle;connectable=0;fillColor=none;top=0;left=0;bottom=0;right=0;editable=1;overflow=hidden;" parent="0WW8wpbG1QDetCVFKokk-62" vertex="1"><mxGeometry width="30" height="30" as="geometry"><mxRectangle width="30" height="30" as="alternateBounds"/></mxGeometry></mxCell><mxCell id="0WW8wpbG1QDetCVFKokk-64" value="이메일 : 외" style="shape=partialRectangle;connectable=0;fillColor=none;top=0;left=0;bottom=0;right=0;align=left;spacingLeft=6;overflow=hidden;" parent="0WW8wpbG1QDetCVFKokk-62" vertex="1"><mxGeometry x="30" width="150" height="30" as="geometry"><mxRectangle width="150" height="30" as="alternateBounds"/></mxGeometry></mxCell><mxCell id="0WW8wpbG1QDetCVFKokk-65" value="" style="shape=tableRow;horizontal=0;startSize=0;swimlaneHead=0;swimlaneBody=0;fillColor=none;collapsible=0;dropTarget=0;points=[[0,0.5],[1,0.5]];portConstraint=eastwest;top=0;left=0;right=0;bottom=0;" parent="0WW8wpbG1QDetCVFKokk-58" vertex="1"><mxGeometry y="90" width="180" height="30" as="geometry"/></mxCell><mxCell id="0WW8wpbG1QDetCVFKokk-66" value="" style="shape=partialRectangle;connectable=0;fillColor=none;top=0;left=0;bottom=0;right=0;editable=1;overflow=hidden;" parent="0WW8wpbG1QDetCVFKokk-65" vertex="1"><mxGeometry width="30" height="30" as="geometry"><mxRectangle width="30" height="30" as="alternateBounds"/></mxGeometry></mxCell><mxCell id="0WW8wpbG1QDetCVFKokk-67" value="Salt : 인증번호" style="shape=partialRectangle;connectable=0;fillColor=none;top=0;left=0;bottom=0;right=0;align=left;spacingLeft=6;overflow=hidden;" parent="0WW8wpbG1QDetCVFKokk-65" vertex="1"><mxGeometry x="30" width="150" height="30" as="geometry"><mxRectangle width="150" height="30" as="alternateBounds"/></mxGeometry></mxCell><mxCell id="0WW8wpbG1QDetCVFKokk-68" value="" style="shape=tableRow;horizontal=0;startSize=0;swimlaneHead=0;swimlaneBody=0;fillColor=none;collapsible=0;dropTarget=0;points=[[0,0.5],[1,0.5]];portConstraint=eastwest;top=0;left=0;right=0;bottom=0;" parent="0WW8wpbG1QDetCVFKokk-58" vertex="1"><mxGeometry y="120" width="180" height="30" as="geometry"/></mxCell><mxCell id="0WW8wpbG1QDetCVFKokk-69" value="" style="shape=partialRectangle;connectable=0;fillColor=none;top=0;left=0;bottom=0;right=0;editable=1;overflow=hidden;" parent="0WW8wpbG1QDetCVFKokk-68" vertex="1"><mxGeometry width="30" height="30" as="geometry"><mxRectangle width="30" height="30" as="alternateBounds"/></mxGeometry></mxCell><mxCell id="0WW8wpbG1QDetCVFKokk-70" value="인증 만들어진시간; Date" style="shape=partialRectangle;connectable=0;fillColor=none;top=0;left=0;bottom=0;right=0;align=left;spacingLeft=6;overflow=hidden;" parent="0WW8wpbG1QDetCVFKokk-68" vertex="1"><mxGeometry x="30" width="150" height="30" as="geometry"><mxRectangle width="150" height="30" as="alternateBounds"/></mxGeometry></mxCell><mxCell id="0WW8wpbG1QDetCVFKokk-77" value="" style="shape=tableRow;horizontal=0;startSize=0;swimlaneHead=0;swimlaneBody=0;fillColor=none;collapsible=0;dropTarget=0;points=[[0,0.5],[1,0.5]];portConstraint=eastwest;top=0;left=0;right=0;bottom=0;" parent="0WW8wpbG1QDetCVFKokk-58" vertex="1"><mxGeometry y="150" width="180" height="30" as="geometry"/></mxCell><mxCell id="0WW8wpbG1QDetCVFKokk-78" value="" style="shape=partialRectangle;connectable=0;fillColor=none;top=0;left=0;bottom=0;right=0;editable=1;overflow=hidden;" parent="0WW8wpbG1QDetCVFKokk-77" vertex="1"><mxGeometry width="30" height="30" as="geometry"><mxRectangle width="30" height="30" as="alternateBounds"/></mxGeometry></mxCell><mxCell id="0WW8wpbG1QDetCVFKokk-79" value="인증 만료 시간 : Date" style="shape=partialRectangle;connectable=0;fillColor=none;top=0;left=0;bottom=0;right=0;align=left;spacingLeft=6;overflow=hidden;" parent="0WW8wpbG1QDetCVFKokk-77" vertex="1"><mxGeometry x="30" width="150" height="30" as="geometry"><mxRectangle width="150" height="30" as="alternateBounds"/></mxGeometry></mxCell><mxCell id="0WW8wpbG1QDetCVFKokk-80" value="" style="shape=tableRow;horizontal=0;startSize=0;swimlaneHead=0;swimlaneBody=0;fillColor=none;collapsible=0;dropTarget=0;points=[[0,0.5],[1,0.5]];portConstraint=eastwest;top=0;left=0;right=0;bottom=0;" parent="0WW8wpbG1QDetCVFKokk-58" vertex="1"><mxGeometry y="180" width="180" height="30" as="geometry"/></mxCell><mxCell id="0WW8wpbG1QDetCVFKokk-81" value="" style="shape=partialRectangle;connectable=0;fillColor=none;top=0;left=0;bottom=0;right=0;editable=1;overflow=hidden;" parent="0WW8wpbG1QDetCVFKokk-80" vertex="1"><mxGeometry width="30" height="30" as="geometry"><mxRectangle width="30" height="30" as="alternateBounds"/></mxGeometry></mxCell><mxCell id="0WW8wpbG1QDetCVFKokk-82" value="인증확인 : boolean,int " style="shape=partialRectangle;connectable=0;fillColor=none;top=0;left=0;bottom=0;right=0;align=left;spacingLeft=6;overflow=hidden;" parent="0WW8wpbG1QDetCVFKokk-80" vertex="1"><mxGeometry x="30" width="150" height="30" as="geometry"><mxRectangle width="150" height="30" as="alternateBounds"/></mxGeometry></mxCell><mxCell id="0WW8wpbG1QDetCVFKokk-83" value="장바구니" style="shape=table;startSize=30;container=1;collapsible=1;childLayout=tableLayout;fixedRows=1;rowLines=0;fontStyle=1;align=center;resizeLast=1;" parent="1" vertex="1"><mxGeometry x="1060" y="720" width="180" height="180" as="geometry"/></mxCell><mxCell id="0WW8wpbG1QDetCVFKokk-84" value="" style="shape=tableRow;horizontal=0;startSize=0;swimlaneHead=0;swimlaneBody=0;fillColor=none;collapsible=0;dropTarget=0;points=[[0,0.5],[1,0.5]];portConstraint=eastwest;top=0;left=0;right=0;bottom=1;" parent="0WW8wpbG1QDetCVFKokk-83" vertex="1"><mxGeometry y="30" width="180" height="30" as="geometry"/></mxCell><mxCell id="0WW8wpbG1QDetCVFKokk-85" value="PK" style="shape=partialRectangle;connectable=0;fillColor=none;top=0;left=0;bottom=0;right=0;fontStyle=1;overflow=hidden;" parent="0WW8wpbG1QDetCVFKokk-84" vertex="1"><mxGeometry width="30" height="30" as="geometry"><mxRectangle width="30" height="30" as="alternateBounds"/></mxGeometry></mxCell><mxCell id="0WW8wpbG1QDetCVFKokk-86" value="index : int : auto" style="shape=partialRectangle;connectable=0;fillColor=none;top=0;left=0;bottom=0;right=0;align=left;spacingLeft=6;fontStyle=5;overflow=hidden;" parent="0WW8wpbG1QDetCVFKokk-84" vertex="1"><mxGeometry x="30" width="150" height="30" as="geometry"><mxRectangle width="150" height="30" as="alternateBounds"/></mxGeometry></mxCell><mxCell id="0WW8wpbG1QDetCVFKokk-87" value="" style="shape=tableRow;horizontal=0;startSize=0;swimlaneHead=0;swimlaneBody=0;fillColor=none;collapsible=0;dropTarget=0;points=[[0,0.5],[1,0.5]];portConstraint=eastwest;top=0;left=0;right=0;bottom=0;" parent="0WW8wpbG1QDetCVFKokk-83" vertex="1"><mxGeometry y="60" width="180" height="30" as="geometry"/></mxCell><mxCell id="0WW8wpbG1QDetCVFKokk-88" value="" style="shape=partialRectangle;connectable=0;fillColor=none;top=0;left=0;bottom=0;right=0;editable=1;overflow=hidden;" parent="0WW8wpbG1QDetCVFKokk-87" vertex="1"><mxGeometry width="30" height="30" as="geometry"><mxRectangle width="30" height="30" as="alternateBounds"/></mxGeometry></mxCell><mxCell id="0WW8wpbG1QDetCVFKokk-89" value="이메일 : 외" style="shape=partialRectangle;connectable=0;fillColor=none;top=0;left=0;bottom=0;right=0;align=left;spacingLeft=6;overflow=hidden;" parent="0WW8wpbG1QDetCVFKokk-87" vertex="1"><mxGeometry x="30" width="150" height="30" as="geometry"><mxRectangle width="150" height="30" as="alternateBounds"/></mxGeometry></mxCell><mxCell id="0WW8wpbG1QDetCVFKokk-90" value="" style="shape=tableRow;horizontal=0;startSize=0;swimlaneHead=0;swimlaneBody=0;fillColor=none;collapsible=0;dropTarget=0;points=[[0,0.5],[1,0.5]];portConstraint=eastwest;top=0;left=0;right=0;bottom=0;" parent="0WW8wpbG1QDetCVFKokk-83" vertex="1"><mxGeometry y="90" width="180" height="30" as="geometry"/></mxCell><mxCell id="0WW8wpbG1QDetCVFKokk-91" value="" style="shape=partialRectangle;connectable=0;fillColor=none;top=0;left=0;bottom=0;right=0;editable=1;overflow=hidden;" parent="0WW8wpbG1QDetCVFKokk-90" vertex="1"><mxGeometry width="30" height="30" as="geometry"><mxRectangle width="30" height="30" as="alternateBounds"/></mxGeometry></mxCell><mxCell id="0WW8wpbG1QDetCVFKokk-92" value="상품이름 : 외" style="shape=partialRectangle;connectable=0;fillColor=none;top=0;left=0;bottom=0;right=0;align=left;spacingLeft=6;overflow=hidden;" parent="0WW8wpbG1QDetCVFKokk-90" vertex="1"><mxGeometry x="30" width="150" height="30" as="geometry"><mxRectangle width="150" height="30" as="alternateBounds"/></mxGeometry></mxCell><mxCell id="0WW8wpbG1QDetCVFKokk-93" value="" style="shape=tableRow;horizontal=0;startSize=0;swimlaneHead=0;swimlaneBody=0;fillColor=none;collapsible=0;dropTarget=0;points=[[0,0.5],[1,0.5]];portConstraint=eastwest;top=0;left=0;right=0;bottom=0;" parent="0WW8wpbG1QDetCVFKokk-83" vertex="1"><mxGeometry y="120" width="180" height="30" as="geometry"/></mxCell><mxCell id="0WW8wpbG1QDetCVFKokk-94" value="" style="shape=partialRectangle;connectable=0;fillColor=none;top=0;left=0;bottom=0;right=0;editable=1;overflow=hidden;" parent="0WW8wpbG1QDetCVFKokk-93" vertex="1"><mxGeometry width="30" height="30" as="geometry"><mxRectangle width="30" height="30" as="alternateBounds"/></mxGeometry></mxCell><mxCell id="0WW8wpbG1QDetCVFKokk-95" value="상품가격 : 외" style="shape=partialRectangle;connectable=0;fillColor=none;top=0;left=0;bottom=0;right=0;align=left;spacingLeft=6;overflow=hidden;" parent="0WW8wpbG1QDetCVFKokk-93" vertex="1"><mxGeometry x="30" width="150" height="30" as="geometry"><mxRectangle width="150" height="30" as="alternateBounds"/></mxGeometry></mxCell><mxCell id="0WW8wpbG1QDetCVFKokk-109" value="" style="shape=tableRow;horizontal=0;startSize=0;swimlaneHead=0;swimlaneBody=0;fillColor=none;collapsible=0;dropTarget=0;points=[[0,0.5],[1,0.5]];portConstraint=eastwest;top=0;left=0;right=0;bottom=0;" parent="0WW8wpbG1QDetCVFKokk-83" vertex="1"><mxGeometry y="150" width="180" height="30" as="geometry"/></mxCell><mxCell id="0WW8wpbG1QDetCVFKokk-110" value="" style="shape=partialRectangle;connectable=0;fillColor=none;top=0;left=0;bottom=0;right=0;editable=1;overflow=hidden;" parent="0WW8wpbG1QDetCVFKokk-109" vertex="1"><mxGeometry width="30" height="30" as="geometry"><mxRectangle width="30" height="30" as="alternateBounds"/></mxGeometry></mxCell><mxCell id="0WW8wpbG1QDetCVFKokk-111" value="상품 수량 : 넣은 수량 " style="shape=partialRectangle;connectable=0;fillColor=none;top=0;left=0;bottom=0;right=0;align=left;spacingLeft=6;overflow=hidden;" parent="0WW8wpbG1QDetCVFKokk-109" vertex="1"><mxGeometry x="30" width="150" height="30" as="geometry"><mxRectangle width="150" height="30" as="alternateBounds"/></mxGeometry></mxCell><mxCell id="0WW8wpbG1QDetCVFKokk-96" value="결제" style="shape=table;startSize=30;container=1;collapsible=1;childLayout=tableLayout;fixedRows=1;rowLines=0;fontStyle=1;align=center;resizeLast=1;" parent="1" vertex="1"><mxGeometry x="1300" y="720" width="180" height="270" as="geometry"/></mxCell><mxCell id="0WW8wpbG1QDetCVFKokk-97" value="" style="shape=tableRow;horizontal=0;startSize=0;swimlaneHead=0;swimlaneBody=0;fillColor=none;collapsible=0;dropTarget=0;points=[[0,0.5],[1,0.5]];portConstraint=eastwest;top=0;left=0;right=0;bottom=1;" parent="0WW8wpbG1QDetCVFKokk-96" vertex="1"><mxGeometry y="30" width="180" height="30" as="geometry"/></mxCell><mxCell id="0WW8wpbG1QDetCVFKokk-98" value="PK" style="shape=partialRectangle;connectable=0;fillColor=none;top=0;left=0;bottom=0;right=0;fontStyle=1;overflow=hidden;" parent="0WW8wpbG1QDetCVFKokk-97" vertex="1"><mxGeometry width="30" height="30" as="geometry"><mxRectangle width="30" height="30" as="alternateBounds"/></mxGeometry></mxCell><mxCell id="0WW8wpbG1QDetCVFKokk-99" value="index : int : auto" style="shape=partialRectangle;connectable=0;fillColor=none;top=0;left=0;bottom=0;right=0;align=left;spacingLeft=6;fontStyle=5;overflow=hidden;" parent="0WW8wpbG1QDetCVFKokk-97" vertex="1"><mxGeometry x="30" width="150" height="30" as="geometry"><mxRectangle width="150" height="30" as="alternateBounds"/></mxGeometry></mxCell><mxCell id="0WW8wpbG1QDetCVFKokk-100" value="" style="shape=tableRow;horizontal=0;startSize=0;swimlaneHead=0;swimlaneBody=0;fillColor=none;collapsible=0;dropTarget=0;points=[[0,0.5],[1,0.5]];portConstraint=eastwest;top=0;left=0;right=0;bottom=0;" parent="0WW8wpbG1QDetCVFKokk-96" vertex="1"><mxGeometry y="60" width="180" height="30" as="geometry"/></mxCell><mxCell id="0WW8wpbG1QDetCVFKokk-101" value="" style="shape=partialRectangle;connectable=0;fillColor=none;top=0;left=0;bottom=0;right=0;editable=1;overflow=hidden;" parent="0WW8wpbG1QDetCVFKokk-100" vertex="1"><mxGeometry width="30" height="30" as="geometry"><mxRectangle width="30" height="30" as="alternateBounds"/></mxGeometry></mxCell><mxCell id="0WW8wpbG1QDetCVFKokk-102" value="이메일 : 외" style="shape=partialRectangle;connectable=0;fillColor=none;top=0;left=0;bottom=0;right=0;align=left;spacingLeft=6;overflow=hidden;" parent="0WW8wpbG1QDetCVFKokk-100" vertex="1"><mxGeometry x="30" width="150" height="30" as="geometry"><mxRectangle width="150" height="30" as="alternateBounds"/></mxGeometry></mxCell><mxCell id="0WW8wpbG1QDetCVFKokk-103" value="" style="shape=tableRow;horizontal=0;startSize=0;swimlaneHead=0;swimlaneBody=0;fillColor=none;collapsible=0;dropTarget=0;points=[[0,0.5],[1,0.5]];portConstraint=eastwest;top=0;left=0;right=0;bottom=0;" parent="0WW8wpbG1QDetCVFKokk-96" vertex="1"><mxGeometry y="90" width="180" height="30" as="geometry"/></mxCell><mxCell id="0WW8wpbG1QDetCVFKokk-104" value="" style="shape=partialRectangle;connectable=0;fillColor=none;top=0;left=0;bottom=0;right=0;editable=1;overflow=hidden;" parent="0WW8wpbG1QDetCVFKokk-103" vertex="1"><mxGeometry width="30" height="30" as="geometry"><mxRectangle width="30" height="30" as="alternateBounds"/></mxGeometry></mxCell><mxCell id="0WW8wpbG1QDetCVFKokk-105" value="이름 : 외" style="shape=partialRectangle;connectable=0;fillColor=none;top=0;left=0;bottom=0;right=0;align=left;spacingLeft=6;overflow=hidden;" parent="0WW8wpbG1QDetCVFKokk-103" vertex="1"><mxGeometry x="30" width="150" height="30" as="geometry"><mxRectangle width="150" height="30" as="alternateBounds"/></mxGeometry></mxCell><mxCell id="0WW8wpbG1QDetCVFKokk-106" value="" style="shape=tableRow;horizontal=0;startSize=0;swimlaneHead=0;swimlaneBody=0;fillColor=none;collapsible=0;dropTarget=0;points=[[0,0.5],[1,0.5]];portConstraint=eastwest;top=0;left=0;right=0;bottom=0;" parent="0WW8wpbG1QDetCVFKokk-96" vertex="1"><mxGeometry y="120" width="180" height="30" as="geometry"/></mxCell><mxCell id="0WW8wpbG1QDetCVFKokk-107" value="" style="shape=partialRectangle;connectable=0;fillColor=none;top=0;left=0;bottom=0;right=0;editable=1;overflow=hidden;" parent="0WW8wpbG1QDetCVFKokk-106" vertex="1"><mxGeometry width="30" height="30" as="geometry"><mxRectangle width="30" height="30" as="alternateBounds"/></mxGeometry></mxCell><mxCell id="0WW8wpbG1QDetCVFKokk-108" value="주소 : St" style="shape=partialRectangle;connectable=0;fillColor=none;top=0;left=0;bottom=0;right=0;align=left;spacingLeft=6;overflow=hidden;" parent="0WW8wpbG1QDetCVFKokk-106" vertex="1"><mxGeometry x="30" width="150" height="30" as="geometry"><mxRectangle width="150" height="30" as="alternateBounds"/></mxGeometry></mxCell><mxCell id="0WW8wpbG1QDetCVFKokk-112" value="" style="shape=tableRow;horizontal=0;startSize=0;swimlaneHead=0;swimlaneBody=0;fillColor=none;collapsible=0;dropTarget=0;points=[[0,0.5],[1,0.5]];portConstraint=eastwest;top=0;left=0;right=0;bottom=0;" parent="0WW8wpbG1QDetCVFKokk-96" vertex="1"><mxGeometry y="150" width="180" height="30" as="geometry"/></mxCell><mxCell id="0WW8wpbG1QDetCVFKokk-113" value="" style="shape=partialRectangle;connectable=0;fillColor=none;top=0;left=0;bottom=0;right=0;editable=1;overflow=hidden;" parent="0WW8wpbG1QDetCVFKokk-112" vertex="1"><mxGeometry width="30" height="30" as="geometry"><mxRectangle width="30" height="30" as="alternateBounds"/></mxGeometry></mxCell><mxCell id="0WW8wpbG1QDetCVFKokk-114" value="연락처 : 외" style="shape=partialRectangle;connectable=0;fillColor=none;top=0;left=0;bottom=0;right=0;align=left;spacingLeft=6;overflow=hidden;" parent="0WW8wpbG1QDetCVFKokk-112" vertex="1"><mxGeometry x="30" width="150" height="30" as="geometry"><mxRectangle width="150" height="30" as="alternateBounds"/></mxGeometry></mxCell><mxCell id="0WW8wpbG1QDetCVFKokk-115" value="" style="shape=tableRow;horizontal=0;startSize=0;swimlaneHead=0;swimlaneBody=0;fillColor=none;collapsible=0;dropTarget=0;points=[[0,0.5],[1,0.5]];portConstraint=eastwest;top=0;left=0;right=0;bottom=0;" parent="0WW8wpbG1QDetCVFKokk-96" vertex="1"><mxGeometry y="180" width="180" height="30" as="geometry"/></mxCell><mxCell id="0WW8wpbG1QDetCVFKokk-116" value="" style="shape=partialRectangle;connectable=0;fillColor=none;top=0;left=0;bottom=0;right=0;editable=1;overflow=hidden;" parent="0WW8wpbG1QDetCVFKokk-115" vertex="1"><mxGeometry width="30" height="30" as="geometry"><mxRectangle width="30" height="30" as="alternateBounds"/></mxGeometry></mxCell><mxCell id="0WW8wpbG1QDetCVFKokk-117" value="인증 만들어진 시간 : Date" style="shape=partialRectangle;connectable=0;fillColor=none;top=0;left=0;bottom=0;right=0;align=left;spacingLeft=6;overflow=hidden;" parent="0WW8wpbG1QDetCVFKokk-115" vertex="1"><mxGeometry x="30" width="150" height="30" as="geometry"><mxRectangle width="150" height="30" as="alternateBounds"/></mxGeometry></mxCell><mxCell id="0WW8wpbG1QDetCVFKokk-118" value="" style="shape=tableRow;horizontal=0;startSize=0;swimlaneHead=0;swimlaneBody=0;fillColor=none;collapsible=0;dropTarget=0;points=[[0,0.5],[1,0.5]];portConstraint=eastwest;top=0;left=0;right=0;bottom=0;" parent="0WW8wpbG1QDetCVFKokk-96" vertex="1"><mxGeometry y="210" width="180" height="30" as="geometry"/></mxCell><mxCell id="0WW8wpbG1QDetCVFKokk-119" value="" style="shape=partialRectangle;connectable=0;fillColor=none;top=0;left=0;bottom=0;right=0;editable=1;overflow=hidden;" parent="0WW8wpbG1QDetCVFKokk-118" vertex="1"><mxGeometry width="30" height="30" as="geometry"><mxRectangle width="30" height="30" as="alternateBounds"/></mxGeometry></mxCell><mxCell id="0WW8wpbG1QDetCVFKokk-120" value="인증 만료 : Date" style="shape=partialRectangle;connectable=0;fillColor=none;top=0;left=0;bottom=0;right=0;align=left;spacingLeft=6;overflow=hidden;" parent="0WW8wpbG1QDetCVFKokk-118" vertex="1"><mxGeometry x="30" width="150" height="30" as="geometry"><mxRectangle width="150" height="30" as="alternateBounds"/></mxGeometry></mxCell><mxCell id="0WW8wpbG1QDetCVFKokk-121" value="" style="shape=tableRow;horizontal=0;startSize=0;swimlaneHead=0;swimlaneBody=0;fillColor=none;collapsible=0;dropTarget=0;points=[[0,0.5],[1,0.5]];portConstraint=eastwest;top=0;left=0;right=0;bottom=0;" parent="0WW8wpbG1QDetCVFKokk-96" vertex="1"><mxGeometry y="240" width="180" height="30" as="geometry"/></mxCell><mxCell id="0WW8wpbG1QDetCVFKokk-122" value="" style="shape=partialRectangle;connectable=0;fillColor=none;top=0;left=0;bottom=0;right=0;editable=1;overflow=hidden;" parent="0WW8wpbG1QDetCVFKokk-121" vertex="1"><mxGeometry width="30" height="30" as="geometry"><mxRectangle width="30" height="30" as="alternateBounds"/></mxGeometry></mxCell><mxCell id="0WW8wpbG1QDetCVFKokk-123" value="인증확인 : boolean,int" style="shape=partialRectangle;connectable=0;fillColor=none;top=0;left=0;bottom=0;right=0;align=left;spacingLeft=6;overflow=hidden;" parent="0WW8wpbG1QDetCVFKokk-121" vertex="1"><mxGeometry x="30" width="150" height="30" as="geometry"><mxRectangle width="150" height="30" as="alternateBounds"/></mxGeometry></mxCell><mxCell id="MyEk56ZyarM5kJLJxkKy-2" value="USER DB" style="rounded=0;whiteSpace=wrap;html=1;" parent="1" vertex="1"><mxGeometry x="880" y="620" width="120" height="60" as="geometry"/></mxCell><mxCell id="MyEk56ZyarM5kJLJxkKy-4" value="상품 DB" style="rounded=0;whiteSpace=wrap;html=1;" parent="1" vertex="1"><mxGeometry x="760" y="-80" width="120" height="60" as="geometry"/></mxCell></root></mxGraphModel></diagram><diagram id="Lfs-iDrzNEPbWop_GKH7" name="시퀀스"><mxGraphModel dx="1165" dy="615" grid="1" gridSize="10" guides="1" tooltips="1" connect="1" arrows="1" fold="1" page="1" pageScale="1" pageWidth="3300" pageHeight="4681" math="0" shadow="0"><root><mxCell id="0"/><mxCell id="1" parent="0"/><mxCell id="loJw6YDa9zmBbY4Nknwj-1" value="" style="shape=umlLifeline;participant=umlActor;perimeter=lifelinePerimeter;whiteSpace=wrap;html=1;container=1;collapsible=0;recursiveResize=0;verticalAlign=top;spacingTop=36;outlineConnect=0;" parent="1" vertex="1"><mxGeometry x="285" y="290" width="20" height="640" as="geometry"/></mxCell><mxCell id="loJw6YDa9zmBbY4Nknwj-2" value="회원" style="text;html=1;align=center;verticalAlign=middle;resizable=0;points=[];autosize=1;strokeColor=none;fillColor=none;" parent="1" vertex="1"><mxGeometry x="270" y="260" width="50" height="30" as="geometry"/></mxCell><mxCell id="loJw6YDa9zmBbY4Nknwj-3" value="상품조회" style="shape=umlLifeline;perimeter=lifelinePerimeter;whiteSpace=wrap;html=1;container=1;collapsible=0;recursiveResize=0;outlineConnect=0;" parent="1" vertex="1"><mxGeometry x="535" y="290" width="100" height="660" as="geometry"/></mxCell><mxCell id="loJw6YDa9zmBbY4Nknwj-4" value="" style="html=1;points=[];perimeter=orthogonalPerimeter;" parent="loJw6YDa9zmBbY4Nknwj-3" vertex="1"><mxGeometry x="46" y="68" width="7.17" height="41" as="geometry"/></mxCell><mxCell id="loJw6YDa9zmBbY4Nknwj-5" value="상품조회 결과 반환" style="html=1;verticalAlign=bottom;endArrow=open;dashed=1;endSize=8;rounded=0;" parent="loJw6YDa9zmBbY4Nknwj-3" target="loJw6YDa9zmBbY4Nknwj-1" edge="1"><mxGeometry relative="1" as="geometry"><mxPoint x="40" y="109" as="sourcePoint"/><mxPoint x="-40" y="109" as="targetPoint"/></mxGeometry></mxCell><mxCell id="loJw6YDa9zmBbY4Nknwj-6" value="" style="html=1;points=[];perimeter=orthogonalPerimeter;" parent="loJw6YDa9zmBbY4Nknwj-3" vertex="1"><mxGeometry x="45" y="264" width="10" height="46" as="geometry"/></mxCell><mxCell id="loJw6YDa9zmBbY4Nknwj-7" value="장바구니 요청" style="html=1;verticalAlign=bottom;endArrow=block;rounded=0;" parent="loJw6YDa9zmBbY4Nknwj-3" edge="1"><mxGeometry width="80" relative="1" as="geometry"><mxPoint x="-240.07142857142856" y="204" as="sourcePoint"/><mxPoint x="202.08000000000004" y="204" as="targetPoint"/></mxGeometry></mxCell><mxCell id="loJw6YDa9zmBbY4Nknwj-10" value="장바구니" style="shape=umlLifeline;perimeter=lifelinePerimeter;whiteSpace=wrap;html=1;container=1;collapsible=0;recursiveResize=0;outlineConnect=0;" parent="1" vertex="1"><mxGeometry x="695" y="290" width="100" height="660" as="geometry"/></mxCell><mxCell id="loJw6YDa9zmBbY4Nknwj-11" value="" style="html=1;points=[];perimeter=orthogonalPerimeter;" parent="loJw6YDa9zmBbY4Nknwj-10" vertex="1"><mxGeometry x="45" y="194" width="8.46" height="196" as="geometry"/></mxCell><mxCell id="SyRD1yiDNwUsWQU55RDZ-4" value="" style="html=1;points=[];perimeter=orthogonalPerimeter;" parent="loJw6YDa9zmBbY4Nknwj-10" vertex="1"><mxGeometry x="45.5" y="440" width="9" height="90" as="geometry"/></mxCell><mxCell id="loJw6YDa9zmBbY4Nknwj-12" value="결제하기" style="shape=umlLifeline;perimeter=lifelinePerimeter;whiteSpace=wrap;html=1;container=1;collapsible=0;recursiveResize=0;outlineConnect=0;" parent="1" vertex="1"><mxGeometry x="855" y="290" width="100" height="660" as="geometry"/></mxCell><mxCell id="loJw6YDa9zmBbY4Nknwj-13" value="" style="html=1;points=[];perimeter=orthogonalPerimeter;" parent="loJw6YDa9zmBbY4Nknwj-12" vertex="1"><mxGeometry x="45.37" y="424" width="9.26" height="126" as="geometry"/></mxCell><mxCell id="SyRD1yiDNwUsWQU55RDZ-5" value="장바구니 내 상품 확인" style="html=1;verticalAlign=bottom;endArrow=block;rounded=0;" parent="loJw6YDa9zmBbY4Nknwj-12" edge="1"><mxGeometry width="80" relative="1" as="geometry"><mxPoint x="40" y="460" as="sourcePoint"/><mxPoint x="-105.5" y="460" as="targetPoint"/></mxGeometry></mxCell><mxCell id="loJw6YDa9zmBbY4Nknwj-14" value="로그인" style="shape=umlLifeline;perimeter=lifelinePerimeter;whiteSpace=wrap;html=1;container=1;collapsible=0;recursiveResize=0;outlineConnect=0;" parent="1" vertex="1"><mxGeometry x="375" y="290" width="100" height="650" as="geometry"/></mxCell><mxCell id="loJw6YDa9zmBbY4Nknwj-15" value="" style="html=1;points=[];perimeter=orthogonalPerimeter;" parent="loJw6YDa9zmBbY4Nknwj-14" vertex="1"><mxGeometry x="46" y="147" width="9.25" height="33" as="geometry"/></mxCell><mxCell id="loJw6YDa9zmBbY4Nknwj-16" value="로그인 결과" style="html=1;verticalAlign=bottom;endArrow=open;dashed=1;endSize=8;rounded=0;" parent="loJw6YDa9zmBbY4Nknwj-14" target="loJw6YDa9zmBbY4Nknwj-1" edge="1"><mxGeometry relative="1" as="geometry"><mxPoint x="40" y="170" as="sourcePoint"/><mxPoint x="-40" y="170" as="targetPoint"/></mxGeometry></mxCell><mxCell id="loJw6YDa9zmBbY4Nknwj-17" value="상품조회 요청" style="html=1;verticalAlign=bottom;endArrow=block;rounded=0;" parent="1" source="loJw6YDa9zmBbY4Nknwj-1" edge="1"><mxGeometry width="80" relative="1" as="geometry"><mxPoint x="575" y="480" as="sourcePoint"/><mxPoint x="575" y="360" as="targetPoint"/><Array as="points"><mxPoint x="495" y="360"/></Array></mxGeometry></mxCell><mxCell id="loJw6YDa9zmBbY4Nknwj-18" value="조회 / 등록 / 수정 / 삭제" style="text;html=1;align=center;verticalAlign=middle;resizable=0;points=[];autosize=1;strokeColor=none;fillColor=none;" parent="1" vertex="1"><mxGeometry x="510" y="260" width="150" height="30" as="geometry"/></mxCell><mxCell id="loJw6YDa9zmBbY4Nknwj-19" value="로그인 시도" style="html=1;verticalAlign=bottom;endArrow=block;rounded=0;" parent="1" edge="1"><mxGeometry width="80" relative="1" as="geometry"><mxPoint x="295" y="439.71000000000004" as="sourcePoint"/><mxPoint x="415" y="440" as="targetPoint"/></mxGeometry></mxCell><mxCell id="loJw6YDa9zmBbY4Nknwj-20" value="장바구니 내 상품 재고 확인" style="html=1;verticalAlign=bottom;endArrow=block;rounded=0;" parent="1" edge="1"><mxGeometry width="80" relative="1" as="geometry"><mxPoint x="740.5" y="564" as="sourcePoint"/><mxPoint x="595" y="564" as="targetPoint"/></mxGeometry></mxCell><mxCell id="loJw6YDa9zmBbY4Nknwj-21" value="장바구니 내 상품 재고 반환" style="html=1;verticalAlign=bottom;endArrow=open;dashed=1;endSize=8;rounded=0;" parent="1" edge="1"><mxGeometry relative="1" as="geometry"><mxPoint x="596" y="590" as="sourcePoint"/><mxPoint x="738" y="589" as="targetPoint"/></mxGeometry></mxCell><mxCell id="loJw6YDa9zmBbY4Nknwj-22" value="로그인 상태 확인" style="html=1;verticalAlign=bottom;endArrow=block;rounded=0;" parent="1" target="loJw6YDa9zmBbY4Nknwj-23" edge="1"><mxGeometry width="80" relative="1" as="geometry"><mxPoint x="739.5" y="516" as="sourcePoint"/><mxPoint x="435" y="516" as="targetPoint"/></mxGeometry></mxCell><mxCell id="loJw6YDa9zmBbY4Nknwj-23" value="" style="html=1;points=[];perimeter=orthogonalPerimeter;" parent="1" vertex="1"><mxGeometry x="421" y="507" width="8.25" height="33" as="geometry"/></mxCell><mxCell id="loJw6YDa9zmBbY4Nknwj-24" value="로그인 상태 결과 반환" style="html=1;verticalAlign=bottom;endArrow=open;dashed=1;endSize=8;rounded=0;" parent="1" target="loJw6YDa9zmBbY4Nknwj-11" edge="1"><mxGeometry relative="1" as="geometry"><mxPoint x="435" y="534" as="sourcePoint"/><mxPoint x="735" y="534" as="targetPoint"/><Array as="points"><mxPoint x="655" y="534"/></Array></mxGeometry></mxCell><mxCell id="loJw6YDa9zmBbY4Nknwj-25" value="장바구니 요청 결과 반환" style="html=1;verticalAlign=bottom;endArrow=open;dashed=1;endSize=8;rounded=0;" parent="1" edge="1"><mxGeometry relative="1" as="geometry"><mxPoint x="740" y="673" as="sourcePoint"/><mxPoint x="294.92857142857156" y="673" as="targetPoint"/></mxGeometry></mxCell><mxCell id="loJw6YDa9zmBbY4Nknwj-26" value="결제 신청" style="html=1;verticalAlign=bottom;endArrow=block;rounded=0;" parent="1" edge="1"><mxGeometry x="-0.01" y="3" width="80" relative="1" as="geometry"><mxPoint x="297.9985714285715" y="723" as="sourcePoint"/><mxPoint x="898" y="723" as="targetPoint"/><mxPoint as="offset"/></mxGeometry></mxCell><mxCell id="loJw6YDa9zmBbY4Nknwj-9" value="결제 결과 반환" style="html=1;verticalAlign=bottom;endArrow=open;dashed=1;endSize=8;rounded=0;" parent="1" edge="1"><mxGeometry relative="1" as="geometry"><mxPoint x="900.19" y="830" as="sourcePoint"/><mxPoint x="300.0003448275863" y="830" as="targetPoint"/></mxGeometry></mxCell><mxCell id="SyRD1yiDNwUsWQU55RDZ-6" value="장바구니 내 상품 반환" style="html=1;verticalAlign=bottom;endArrow=open;dashed=1;endSize=8;rounded=0;" parent="1" edge="1"><mxGeometry relative="1" as="geometry"><mxPoint x="750" y="800.9999999999998" as="sourcePoint"/><mxPoint x="892" y="800" as="targetPoint"/></mxGeometry></mxCell></root></mxGraphModel></diagram><diagram id="Sk9gu6rQnio5hvl8QulZ" name="MVC"><mxGraphModel dx="1685" dy="615" grid="1" gridSize="10" guides="1" tooltips="1" connect="1" arrows="1" fold="1" page="1" pageScale="1" pageWidth="827" pageHeight="1169" math="0" shadow="0"><root><mxCell id="0"/><mxCell id="1" parent="0"/><mxCell id="aGyJTe2F9xeQyX8Y1l0J-1" value="View" style="shape=umlFrame;whiteSpace=wrap;html=1;" parent="1" vertex="1"><mxGeometry x="-150" y="130" width="300" height="550" as="geometry"/></mxCell><mxCell id="aGyJTe2F9xeQyX8Y1l0J-2" value="Model" style="shape=umlFrame;whiteSpace=wrap;html=1;" parent="1" vertex="1"><mxGeometry x="600" y="130" width="300" height="550" as="geometry"/></mxCell><mxCell id="aGyJTe2F9xeQyX8Y1l0J-3" value="Controller" style="shape=umlFrame;whiteSpace=wrap;html=1;" parent="1" vertex="1"><mxGeometry x="210" y="130" width="300" height="550" as="geometry"/></mxCell><mxCell id="aGyJTe2F9xeQyX8Y1l0J-4" value="GUIViewar" style="swimlane;fontStyle=1;align=center;verticalAlign=top;childLayout=stackLayout;horizontal=1;startSize=26;horizontalStack=0;resizeParent=1;resizeParentMax=0;resizeLast=0;collapsible=1;marginBottom=0;" parent="1" vertex="1"><mxGeometry x="-90" y="250" width="160" height="252" as="geometry"/></mxCell><mxCell id="aGyJTe2F9xeQyX8Y1l0J-5" value="controller : FrontController" style="text;strokeColor=none;fillColor=none;align=center;verticalAlign=top;spacingLeft=4;spacingRight=4;overflow=hidden;rotatable=0;points=[[0,0.5],[1,0.5]];portConstraint=eastwest;spacing=3;fontSize=13;" parent="aGyJTe2F9xeQyX8Y1l0J-4" vertex="1"><mxGeometry y="26" width="160" height="114" as="geometry"/></mxCell><mxCell id="aGyJTe2F9xeQyX8Y1l0J-6" value="" style="line;strokeWidth=1;fillColor=none;align=left;verticalAlign=middle;spacingTop=-1;spacingLeft=3;spacingRight=3;rotatable=0;labelPosition=right;points=[];portConstraint=eastwest;strokeColor=inherit;" parent="aGyJTe2F9xeQyX8Y1l0J-4" vertex="1"><mxGeometry y="140" width="160" height="8" as="geometry"/></mxCell><mxCell id="aGyJTe2F9xeQyX8Y1l0J-7" value="+ method(type): type" style="text;strokeColor=none;fillColor=none;align=left;verticalAlign=top;spacingLeft=4;spacingRight=4;overflow=hidden;rotatable=0;points=[[0,0.5],[1,0.5]];portConstraint=eastwest;" parent="aGyJTe2F9xeQyX8Y1l0J-4" vertex="1"><mxGeometry y="148" width="160" height="104" as="geometry"/></mxCell></root></mxGraphModel></diagram><diagram id="KBPRqG-02jAeLX31tPXi" name="ERD"><mxGraphModel dx="1209" dy="577" grid="1" gridSize="10" guides="1" tooltips="1" connect="1" arrows="1" fold="1" page="1" pageScale="1" pageWidth="827" pageHeight="1169" math="0" shadow="0"><root><mxCell id="0"/><mxCell id="1" parent="0"/></root></mxGraphModel></diagram></mxfile>